<?xml version="1.0" encoding="UTF-8"?>
<svg version="1.1" xmlns="http://www.w3.org/2000/svg" width="1000" height="769">
<path d="M0 0 C1.29931641 1.35424805 1.29931641 1.35424805 2.6015625 3.26171875 C3.08689453 3.96151855 3.57222656 4.66131836 4.07226562 5.38232422 C4.84086914 6.52338623 4.84086914 6.52338623 5.625 7.6875 C6.16060547 8.46625488 6.69621094 9.24500977 7.24804688 10.04736328 C8.33494083 11.6286836 9.41797635 13.21266312 10.49707031 14.79931641 C11.77056388 16.66404529 13.06008082 18.51425712 14.3671875 20.35546875 C60.03924955 85.01573242 89.78452783 162.32918631 77.03515625 242.328125 C72.11720568 270.82292887 62.48168099 297.49725531 49 323 C48.62649414 323.70979004 48.25298828 324.41958008 47.86816406 325.15087891 C36.18904873 347.18171636 21.73274445 370.26725555 4 388 C3.66688124 391.03576169 3.66688124 391.03576169 3.68115234 394.65283203 C3.67110672 395.33587402 3.6610611 396.01891602 3.65071106 396.72265625 C3.6197763 398.98436629 3.60281577 401.24595744 3.5859375 403.5078125 C3.56723408 405.07438182 3.5476613 406.64094099 3.5272522 408.20748901 C3.47583748 412.33382183 3.43626197 416.46018734 3.39910889 420.58666992 C3.35912759 424.7961441 3.30800854 429.00548118 3.2578125 433.21484375 C3.16094272 441.47646899 3.07657355 449.73816185 3 458 C-0.3 458 -3.6 458 -7 458 C-6.98810135 457.15412323 -6.9762027 456.30824646 -6.96394348 455.43673706 C-6.86090226 447.40571544 -6.81187071 439.37647767 -6.82121754 431.34477043 C-6.82417771 427.21675821 -6.80736148 423.0909328 -6.74291992 418.96337891 C-6.68131508 414.96832393 -6.67483075 410.97640653 -6.70416832 406.98102188 C-6.70604987 405.46856005 -6.68914336 403.95593666 -6.65177345 402.44393539 C-6.37645276 390.53078616 -9.59336032 384.11286024 -17.68936348 375.435956 C-19.50780459 373.44364052 -21.11238305 371.31213449 -22.71484375 369.14453125 C-23.24932129 368.43063232 -23.78379883 367.7167334 -24.33447266 366.98120117 C-54.76194338 325.8165313 -77.38391935 278.32836501 -83 227 C-83.11085938 226.06929687 -83.22171875 225.13859375 -83.3359375 224.1796875 C-86.88893697 188.16955769 -81.31417991 152.18117627 -70 118 C-69.75056641 117.24364258 -69.50113281 116.48728516 -69.24414062 115.70800781 C-56.39712146 77.44766924 -35.21665743 43.13740744 -11.36865234 10.85449219 C-10.15013405 9.20342816 -8.94336616 7.54370672 -7.73828125 5.8828125 C-7.12339844 5.05523437 -6.50851562 4.22765625 -5.875 3.375 C-5.37742187 2.70210938 -4.87984375 2.02921875 -4.3671875 1.3359375 C-3 -0 -3 -0 0 0 Z " fill="#A3B287" transform="translate(499,0)"/>
<path d="M0 0 C-1.23892314 8.58431345 -3.13910024 16.80158574 -5.5625 25.125 C-5.91328613 26.33567139 -6.26407227 27.54634277 -6.62548828 28.79370117 C-14.39350547 55.2059894 -24.17326705 80.62400502 -37 105 C-37.3923584 105.75812988 -37.7847168 106.51625977 -38.18896484 107.29736328 C-48.89328953 127.89727833 -62.10563275 146.38693241 -77.74609375 163.5234375 C-79.2742196 165.20252205 -80.78685858 166.89580823 -82.28515625 168.6015625 C-86.89857175 173.8401235 -91.63320308 178.54508362 -97 183 C-97.88300781 183.75925781 -98.76601563 184.51851562 -99.67578125 185.30078125 C-116.28509028 199.44619278 -134.31507261 210.64942746 -154 220 C-154.67836914 220.3285498 -155.35673828 220.65709961 -156.05566406 220.99560547 C-189.61758362 237.16118449 -226.63410212 243.854185 -263.5625 246.1875 C-264.27419342 246.23322144 -264.98588684 246.27894287 -265.71914673 246.3260498 C-273.59184625 246.81835297 -281.34185116 247.02893321 -289.22875977 246.62402344 C-296.89893721 246.26453915 -301.59161805 246.36539523 -307.625 251.4375 C-315.71917559 260.62029097 -315.58426661 270.31645819 -316 282 C-319.3 282 -322.6 282 -326 282 C-326.76746635 256.16196606 -326.76746635 256.16196606 -317.328125 246.0703125 C-315 244 -315 244 -313.33120728 242.99671936 C-309.81631886 240.85756728 -307.67594334 239.1754424 -306.43017578 235.1730957 C-306.0744035 233.68027482 -305.74757226 232.18035001 -305.4453125 230.67578125 C-305.25791 229.86542419 -305.07050751 229.05506714 -304.87742615 228.22015381 C-304.47829608 226.48739405 -304.09075848 224.75192976 -303.71389771 223.01419067 C-302.71847362 218.44747568 -301.6238827 213.90458778 -300.53515625 209.359375 C-300.32126755 208.45909073 -300.10737885 207.55880646 -299.88700867 206.63124084 C-288.91361486 160.97731058 -265.4859948 117.84660952 -233 84 C-232.19755859 83.15671143 -232.19755859 83.15671143 -231.37890625 82.29638672 C-223.1530424 73.69295002 -214.56214241 66.07906559 -205 59 C-204.44908691 58.58298828 -203.89817383 58.16597656 -203.33056641 57.73632812 C-181.32511846 41.08776851 -155.80547296 28.1038106 -129.52197266 19.79882812 C-126.89597615 18.96705072 -124.28263447 18.10105242 -121.66796875 17.234375 C-96.34242751 9.00971024 -70.36914004 5.0079412 -44 2 C-43.15969238 1.89905029 -42.31938477 1.79810059 -41.45361328 1.6940918 C-36.10099246 1.06303493 -30.75789322 0.69541706 -25.375 0.4375 C-24.51487305 0.3950415 -23.65474609 0.35258301 -22.76855469 0.30883789 C-15.17383616 -0.0407893 -7.60160596 -0.10365826 0 0 Z " fill="#5596B7" transform="translate(846,176)"/>
<path d="M0 0 C73.4884021 -2.05402366 155.81380234 16.83398359 213 65 C213.52803223 65.43924805 214.05606445 65.87849609 214.60009766 66.33105469 C226.56478178 76.29544062 237.3115282 86.75434791 247 99 C247.63164062 99.7528125 248.26328125 100.505625 248.9140625 101.28125 C260.01503991 114.6206961 269.03010393 129.62544871 277 145 C277.56581787 146.09054687 277.56581787 146.09054687 278.14306641 147.203125 C291.71096051 173.73903233 308 210.63882156 308 241 C308.804375 241.3403125 308.804375 241.3403125 309.625 241.6875 C316.47953051 245.47553002 320.89690721 250.64964477 323.75390625 257.91796875 C325.89330079 265.65270287 325.16426168 274.05155962 325 282 C321.7 282 318.4 282 315 282 C314.90203125 280.63746094 314.8040625 279.27492188 314.703125 277.87109375 C314.55296778 276.05982229 314.40187657 274.2486281 314.25 272.4375 C314.1571875 271.09461914 314.1571875 271.09461914 314.0625 269.72460938 C313.35550047 261.68248972 310.95545391 256.15259473 304.875 250.5625 C298.94576241 246.13680833 293.79102258 246.51855205 286.7890625 246.83203125 C279.47056544 247.13356702 272.18068057 246.73272293 264.875 246.3125 C264.14766663 246.27066589 263.42033325 246.22883179 262.67095947 246.18572998 C223.63345211 243.83981102 185.25023951 235.15648342 150 218 C149.26297852 217.64180176 148.52595703 217.28360352 147.76660156 216.91455078 C132.44053261 209.36212393 118.04207203 200.04864964 105 189 C104.01128906 188.19433594 103.02257812 187.38867188 102.00390625 186.55859375 C89.75573511 176.51334447 78.7717229 165.47862453 69 153 C68.39542969 152.28585937 67.79085937 151.57171875 67.16796875 150.8359375 C55.74981172 137.23030196 46.25197908 121.70027304 38 106 C37.51055908 105.07670898 37.51055908 105.07670898 37.01123047 104.13476562 C26.85923577 84.8484948 18.7079027 64.72012205 12 44 C11.53400391 42.56092285 11.53400391 42.56092285 11.05859375 41.09277344 C6.71405766 27.53654838 3.11037181 13.8891718 0 0 Z " fill="#D4795F" transform="translate(150,176)"/>
<path d="M0 0 C11.99390497 9.95857564 18.92013116 27.53009797 26.15332031 40.9519043 C26.64026367 41.85465088 27.12720703 42.75739746 27.62890625 43.6875 C28.06275635 44.49574219 28.49660645 45.30398438 28.94360352 46.13671875 C29.86382207 47.95261399 29.86382207 47.95261399 31 49 C31.40202637 48.26587891 31.80405273 47.53175781 32.21826172 46.77539062 C56.75511905 2.05600557 56.75511905 2.05600557 65.9375 -2.4375 C72.95449857 -3.72633647 78.67988042 -3.37073044 85 0 C90.23087784 4.16092555 93.58302592 9.37347851 94.34875488 16.03320312 C94.46182766 19.66411023 94.44961724 23.27405464 94.390625 26.90625 C94.38315092 28.24002224 94.37746351 29.57380556 94.37347412 30.90759277 C94.35830909 34.39305734 94.31910919 37.87783945 94.2746582 41.36303711 C94.23350594 44.92943087 94.21542086 48.4959365 94.1953125 52.0625 C94.15260345 59.04197276 94.08233078 66.02088321 94 73 C86.74 73 79.48 73 72 73 C71.67 57.49 71.34 41.98 71 26 C67.11673893 26.53497391 67.11673893 26.53497391 65.83422852 28.49267578 C65.51897217 29.1370459 65.20371582 29.78141602 64.87890625 30.4453125 C64.50701172 31.18193115 64.13511719 31.9185498 63.75195312 32.67749023 C63.16317383 33.88900757 63.16317383 33.88900757 62.5625 35.125 C61.69234049 36.8494463 60.81846075 38.57201901 59.94140625 40.29296875 C59.4736377 41.21255371 59.00586914 42.13213867 58.52392578 43.07958984 C55.8141777 48.27247779 52.90299807 53.35088804 50 58.4375 C48.89535722 60.37342632 47.79115977 62.30960685 46.6875 64.24609375 C46.21699219 65.06779053 45.74648438 65.8894873 45.26171875 66.73608398 C44.11242097 68.7982818 43.03624481 70.87916446 42 73 C24.7080637 75.63698449 24.7080637 75.63698449 19.265625 71.76660156 C16.07452171 68.00467591 14.27711067 63.4246897 12.34472656 58.9296875 C9.90617742 53.61694426 6.92256181 48.58854617 4.03338623 43.51138306 C2.375758 40.58573923 0.75031023 37.64294912 -0.875 34.69921875 C-1.42929687 33.69721436 -1.98359375 32.69520996 -2.5546875 31.6628418 C-3.74976613 29.46103054 -4.89868369 27.24974597 -6 25 C-6.99 25 -7.98 25 -9 25 C-9.33 40.84 -9.66 56.68 -10 73 C-17.26 73 -24.52 73 -32 73 C-32.09065547 65.3152054 -32.16391937 57.63061229 -32.20724869 49.94541168 C-32.22805315 46.37616481 -32.25623769 42.80730526 -32.30175781 39.23828125 C-32.345474 35.78879534 -32.36919071 32.33968008 -32.37950897 28.88993835 C-32.39041005 26.94460818 -32.42159466 24.99942548 -32.45318604 23.05432129 C-32.45523437 14.91423153 -31.68635426 9.35966097 -26.2890625 2.9765625 C-18.35960833 -3.46379229 -9.14902796 -5.41185276 0 0 Z " fill="#FDFDFD" transform="translate(346,598)"/>
<path d="M0 0 C1.00309708 -0.01467567 1.00309708 -0.01467567 2.02645874 -0.02964783 C4.23946156 -0.05955584 6.45240387 -0.08097941 8.66552734 -0.09985352 C9.42382214 -0.10642534 10.18211693 -0.11299717 10.96339035 -0.11976814 C14.98078292 -0.15234856 18.99814921 -0.17679738 23.015625 -0.19628906 C26.32917246 -0.21406543 29.64186298 -0.24882629 32.95507812 -0.29882812 C36.96571944 -0.35927587 40.97556963 -0.38979832 44.98664474 -0.39946175 C46.50881536 -0.40797931 48.03096695 -0.4267057 49.55287552 -0.45620537 C58.61305075 -0.62230302 65.47107894 -0.22716346 72.37646484 6.20874023 C77.05445285 10.89395852 76.92008832 15.72871838 76.97216797 22.04077148 C76.95573242 23.85641602 76.95573242 23.85641602 76.93896484 25.70874023 C76.97473633 27.52438477 76.97473633 27.52438477 77.01123047 29.37670898 C76.99492644 39.25695336 76.99492644 39.25695336 74.21630859 42.98999023 C69.49085857 46.68195119 64.45891065 46.33085137 58.63671875 46.23046875 C57.66980103 46.21605743 57.66980103 46.21605743 56.68334961 46.20135498 C54.57312166 46.16862767 52.46311819 46.1281975 50.35302734 46.08764648 C48.88187427 46.0633196 47.41071311 46.03947736 45.93954468 46.01609802 C42.08273041 45.95351241 38.2260608 45.88437467 34.36938477 45.81384277 C30.42780092 45.74292759 26.48611518 45.67824976 22.54443359 45.61303711 C14.82166458 45.48435418 7.09903779 45.34874479 -0.62353516 45.20874023 C-0.31535159 46.52226046 -0.00185851 47.83453596 0.31396484 49.14624023 C0.575 50.24258789 0.575 50.24258789 0.84130859 51.36108398 C1.21534053 53.20843921 1.21534053 53.20843921 2.37646484 54.20874023 C4.6456671 54.33290244 6.91872935 54.38677772 9.19116211 54.4140625 C9.90331879 54.4239621 10.61547546 54.43386169 11.34921265 54.44406128 C13.71373113 54.47576235 16.07826973 54.50046748 18.44287109 54.52514648 C20.07812536 54.5457086 21.71337423 54.56670486 23.34861755 54.58811951 C27.6607527 54.64341695 31.97293642 54.69279224 36.28515625 54.7409668 C40.68217308 54.79112596 45.07911904 54.84684111 49.47607422 54.90209961 C58.10947958 55.00977498 66.74294485 55.11068579 75.37646484 55.20874023 C75.37646484 61.47874023 75.37646484 67.74874023 75.37646484 74.20874023 C65.49235623 74.27668542 55.60840432 74.33165378 45.72411442 74.36417675 C41.13377728 74.37979103 36.54360908 74.40095136 31.95336914 74.43505859 C27.5183542 74.46780388 23.08350112 74.48562508 18.64837456 74.49337196 C16.96159762 74.49888836 15.27482891 74.50966021 13.58812141 74.5259304 C-7.55685692 74.72167018 -7.55685692 74.72167018 -14.93603516 67.95874023 C-15.55091797 67.41733398 -16.16580078 66.87592773 -16.79931641 66.31811523 C-22.08716678 60.20368439 -23.2289386 55.46540281 -23.15478516 47.58374023 C-23.15861206 46.6780127 -23.16243896 45.77228516 -23.16638184 44.83911133 C-23.1690917 42.93301271 -23.16179566 41.02687632 -23.14501953 39.12084961 C-23.12359613 36.21700482 -23.14485227 33.31563383 -23.17041016 30.41186523 C-23.16776672 28.55248482 -23.1626414 26.69310593 -23.15478516 24.83374023 C-23.16288208 23.97312988 -23.170979 23.11251953 -23.17932129 22.22583008 C-23.08949989 16.4003527 -21.95843023 13.01040197 -18.62353516 8.20874023 C-16.36962891 6.02905273 -16.36962891 6.02905273 -14.06103516 4.33374023 C-13.29662109 3.75881836 -12.53220703 3.18389648 -11.74462891 2.59155273 C-7.84768753 0.05100532 -4.54763978 0.05968344 0 0 Z M0.70458984 19.86694336 C-1.11685888 22.62988641 -1.11685888 22.62988641 -0.62353516 28.20874023 C17.85646484 28.20874023 36.33646484 28.20874023 55.37646484 28.20874023 C55.86978856 22.62988641 55.86978856 22.62988641 54.04833984 19.86694336 C49.78700594 17.22229973 45.54364342 17.63833204 40.62646484 17.67749023 C39.57620117 17.67366333 38.5259375 17.66983643 37.44384766 17.66589355 C35.22476238 17.66317328 33.0056451 17.67054247 30.78662109 17.68725586 C27.38875889 17.70866278 23.99301123 17.68745698 20.59521484 17.66186523 C18.43896017 17.66450849 16.28270682 17.66963342 14.12646484 17.67749023 C12.60134277 17.66534485 12.60134277 17.66534485 11.04541016 17.6529541 C5.5893549 17.69294083 5.5893549 17.69294083 0.70458984 19.86694336 Z " fill="#FDFDFD" transform="translate(229.62353515625,596.791259765625)"/>
<path d="M0 0 C10.99626256 -0.06778161 21.99238633 -0.12281954 32.98881054 -0.15543652 C38.09491425 -0.17109116 43.20086759 -0.19232588 48.30688477 -0.22631836 C53.23465261 -0.2589188 58.16227584 -0.27685453 63.0901432 -0.28463173 C64.97001738 -0.29017399 66.84988367 -0.30099666 68.72969627 -0.31719017 C71.36318429 -0.33897353 73.99607503 -0.34196655 76.62963867 -0.34057617 C77.79489326 -0.35675491 77.79489326 -0.35675491 78.98368835 -0.3732605 C83.51239447 -0.34739571 86.38297886 0.22810628 90 3 C94.88802821 8.8453039 94.54279398 15.95911196 94.375 23.1875 C94.37371094 24.25419922 94.37242187 25.32089844 94.37109375 26.41992188 C94.30187434 32.56891317 94.240301 37.39836013 90.0625 42.25 C86.27642328 45.46242873 82.77248515 45.09004689 78 45 C83.39650284 51.26215347 88.96636615 57.35928231 94.56494141 63.43994141 C95.95548124 64.95160346 97.34353657 66.46549667 98.73046875 67.98046875 C99.40070068 68.71245483 99.40070068 68.71245483 100.08447266 69.45922852 C100.98681518 70.44509716 101.88883328 71.43126284 102.79052734 72.41772461 C105.2392298 75.09296478 107.7018739 77.75377265 110.18359375 80.3984375 C110.71605713 80.96828369 111.24852051 81.53812988 111.79711914 82.12524414 C112.81244269 83.21094754 113.8309175 84.29371696 114.85327148 85.37280273 C118.26796675 89.03169832 121.15679446 92.8799367 124 97 C97.38569913 99.59645221 97.38569913 99.59645221 90.44921875 94.1875 C87.40412027 91.13199021 84.93249917 87.69017145 82.51708984 84.12548828 C79.97388779 80.56238608 76.91411972 77.51362817 73.875 74.375 C72.7134067 73.13537353 71.55451735 71.89320741 70.3984375 70.6484375 C69.55297363 69.74109863 69.55297363 69.74109863 68.69042969 68.81542969 C65.9570547 65.87993338 63.2257882 62.94254384 60.5 60 C60.03190918 59.49645996 59.56381836 58.99291992 59.08154297 58.47412109 C58.63182129 57.98766113 58.18209961 57.50120117 57.71875 57 C57.26387207 56.52183838 56.80899414 56.04367676 56.34033203 55.55102539 C55 54 55 54 53.81201172 52.10327148 C51.55097391 48.73484778 50.04741486 47.22585627 45.99511719 46.35205078 C42.34841134 46.08602813 38.78236053 46.03140221 35.125 46.0625 C30.79375 46.041875 26.4625 46.02125 22 46 C22 55.24 22 64.48 22 74 C14.74 74 7.48 74 0 74 C0 58.49 0 42.98 0 27 C4.88554688 26.93941406 9.77109375 26.87882813 14.8046875 26.81640625 C17.89454035 26.77592483 20.98438413 26.73515822 24.07421875 26.69335938 C28.98157721 26.62700065 33.88893391 26.5617145 38.79638672 26.50268555 C42.75161172 26.45504447 46.7067488 26.40270176 50.66186905 26.34705925 C52.17296289 26.32663453 53.68408084 26.30792164 55.19521713 26.29092598 C57.30715424 26.26688449 59.41892468 26.23682978 61.53076172 26.20532227 C62.73433319 26.18977798 63.93790466 26.1742337 65.177948 26.15821838 C67.95074633 26.18981223 67.95074633 26.18981223 70 25 C70.042721 23.33388095 70.04063832 21.66617115 70 20 C68.13974079 18.13974079 65.03970281 18.82627572 62.55249023 18.79467773 C61.87934784 18.78477814 61.20620544 18.77487854 60.51266479 18.76467896 C58.27801075 18.73298162 56.04333542 18.70827426 53.80859375 18.68359375 C52.26302016 18.66303131 50.71745228 18.64203504 49.17189026 18.62062073 C45.09649268 18.56532663 41.02104375 18.51594987 36.94555664 18.46777344 C32.7898296 18.41761183 28.63417748 18.36189796 24.47851562 18.30664062 C16.31907194 18.19896934 8.15956489 18.09805729 0 18 C0 12.06 0 6.12 0 0 Z " fill="#FDFDFD" transform="translate(687,597)"/>
<path d="M0 0 C1.42050083 -0.00337671 2.84099882 -0.00823641 4.26148987 -0.01449585 C7.22612246 -0.02182964 10.1899972 -0.01127853 13.15454102 0.01220703 C16.92832902 0.0406685 20.70033651 0.02428815 24.4740591 -0.00565529 C27.40408902 -0.02384694 30.33370676 -0.01791629 33.26375008 -0.00501633 C34.65382162 -0.00171352 36.0439323 -0.00565764 37.43395805 -0.01741409 C46.96414617 -0.08034281 54.79504814 0.84720631 62.15335083 7.34011841 C69.77540612 15.14002518 69.73717038 25.21378976 69.64501953 35.52050781 C69.62893563 37.66015367 69.64493275 39.79791139 69.6640625 41.9375 C69.67916895 51.01739787 69.42921831 59.81917127 63.19140625 66.9765625 C62.68480469 67.59144531 62.17820312 68.20632813 61.65625 68.83984375 C53.75281079 74.8413171 45.25062974 75.23863677 35.65234375 75.125 C34.37589996 75.12408356 33.09945618 75.12316711 31.78433228 75.1222229 C29.09947741 75.11620816 26.4160317 75.1027293 23.73144531 75.07568359 C20.31107299 75.04163787 16.89129189 75.03405847 13.47076988 75.03557396 C10.17707039 75.03489601 6.88349235 75.01720254 3.58984375 75 C2.3719516 74.99777435 1.15405945 74.99554871 -0.10073853 74.99325562 C-10.36669535 74.87918643 -18.02699373 73.86855585 -25.74609375 66.6640625 C-30.68320972 60.42770548 -32.05693915 54.53792515 -32.046875 46.703125 C-32.05116013 45.9537265 -32.05544525 45.204328 -32.05986023 44.43222046 C-32.06557747 42.85391241 -32.0661231 41.27557802 -32.06176758 39.69726562 C-32.05861201 37.30292026 -32.0820826 34.90981759 -32.10742188 32.515625 C-32.10969584 30.97395987 -32.11039791 29.43229146 -32.109375 27.890625 C-32.11858475 27.18515533 -32.12779449 26.47968567 -32.13728333 25.75283813 C-32.0734112 18.77213682 -30.12555625 12.2575972 -25.28565979 7.03573608 C-17.63738627 0.2215206 -9.8848611 -0.08346222 0 0 Z M-7.09375 23.16796875 C-9.8438186 27.32232771 -9.28132949 31.74315046 -9.18359375 36.6015625 C-9.19068359 37.59091797 -9.19777344 38.58027344 -9.20507812 39.59960938 C-9.21074883 46.67944615 -9.21074883 46.67944615 -5.74609375 52.6640625 C-2.93876205 54.34127506 -0.86273338 54.91549858 2.39233398 54.92285156 C3.19674423 54.92915588 4.00115448 54.93546021 4.8299408 54.94195557 C6.1206826 54.93588287 6.1206826 54.93588287 7.4375 54.9296875 C8.33001968 54.93160095 9.22253937 54.9335144 10.1421051 54.93548584 C12.02743817 54.93684522 13.91278068 54.933166 15.7980957 54.92480469 C18.67746117 54.91411427 21.55620095 54.92470181 24.43554688 54.9375 C26.26953262 54.93617811 28.10351798 54.93361512 29.9375 54.9296875 C31.22520546 54.93576019 31.22520546 54.93576019 32.53892517 54.94195557 C36.82084492 54.90852831 40.44828755 54.87015855 44.25390625 52.6640625 C47.25679917 47.4778435 47.72345044 43.01057444 47.62890625 37.1015625 C47.64050781 36.37259766 47.65210938 35.64363281 47.6640625 34.89257812 C47.63817755 30.09954743 46.83623505 26.83357876 44.25390625 22.6640625 C39.68643625 18.52479281 35.20467874 18.49427409 29.296875 18.4609375 C28.1260009 18.45238739 28.1260009 18.45238739 26.93147278 18.44366455 C25.27976839 18.434223 23.62804523 18.42768392 21.97631836 18.42382812 C19.46108738 18.41413832 16.94667934 18.38311449 14.43164062 18.3515625 C12.82422358 18.34503036 11.21680072 18.33978072 9.609375 18.3359375 C8.86229782 18.3235907 8.11522064 18.3112439 7.34550476 18.29852295 C1.4487834 18.32342637 -2.23012288 20.05233407 -7.09375 23.16796875 Z " fill="#FDFDFD" transform="translate(819.74609375,596.3359375)"/>
<path d="M0 0 C1.26869431 -0.0159874 2.53738861 -0.03197479 3.8445282 -0.04844666 C5.22292679 -0.05482587 6.60133025 -0.06021782 7.97973633 -0.06469727 C9.40595081 -0.07367486 10.83216439 -0.0827969 12.25837708 -0.09205627 C15.24665608 -0.10852203 18.23482342 -0.1162414 21.22314453 -0.11914062 C25.02827712 -0.12450853 28.83234007 -0.16213085 32.63717175 -0.20788479 C35.58427121 -0.23782731 38.53111906 -0.24486794 41.47835732 -0.24586678 C42.87964058 -0.25003857 44.28092675 -0.26234898 45.68205833 -0.28338432 C55.2428448 -0.41544677 63.32549788 0.33454768 70.55778503 7.12062073 C76.05416817 13.03557297 76.93364859 18.4990733 76.92504883 26.33374023 C76.92933395 27.20027725 76.93361908 28.06681427 76.93803406 28.95960999 C76.94376301 30.78768034 76.94428821 32.61577349 76.93994141 34.44384766 C76.93678207 37.23111085 76.9602559 40.01731128 76.9855957 42.80444336 C76.98786901 44.58504099 76.98857205 46.36564145 76.98754883 48.14624023 C76.99675858 48.97453842 77.00596832 49.80283661 77.01545715 50.65623474 C76.95284682 58.53921447 74.08979575 63.59243521 68.62426758 69.30639648 C63.1557833 73.17734603 58.48420224 74.42686529 51.88110352 74.45166016 C50.14845245 74.46122993 50.14845245 74.46122993 48.38079834 74.47099304 C46.51358124 74.47266228 46.51358124 74.47266228 44.60864258 74.47436523 C43.32370911 74.47769363 42.03877563 74.48102203 40.71490479 74.48445129 C37.99474244 74.49043342 35.27461182 74.49229224 32.55444336 74.49169922 C29.08687871 74.49159789 25.61952018 74.50522368 22.15200424 74.52247143 C18.82504767 74.53634049 15.49812764 74.53568232 12.17114258 74.53686523 C10.31607086 74.54764351 10.31607086 74.54764351 8.42352295 74.55863953 C-0.51235209 74.53509567 -8.20118914 74.23319311 -15.37573242 68.30639648 C-21.26829997 61.58210289 -23.68251764 56.09560674 -23.74682617 47.07592773 C-23.75585464 46.28546555 -23.76488312 45.49500336 -23.77418518 44.68058777 C-23.78865577 43.01056685 -23.79756647 41.34048966 -23.80126953 39.67041016 C-23.81311578 37.14377418 -23.86228492 34.61962344 -23.9128418 32.09350586 C-24.01237407 22.24541526 -23.70236572 13.93830972 -16.56103516 6.38769531 C-11.55294272 1.68866378 -6.87577049 0.06570267 0 0 Z M0.62426758 23.30639648 C-1.67003143 27.1347136 -1.72304755 30.68735013 -1.68823242 35.05639648 C-1.68331787 35.77142334 -1.67840332 36.4864502 -1.67333984 37.22314453 C-1.55265583 42.65268746 -1.05791484 46.58945499 1.62426758 51.30639648 C6.08779007 54.98687306 10.39613126 54.72899971 15.90551758 54.66967773 C16.79662231 54.67017624 17.68772705 54.67067474 18.60583496 54.67118835 C20.48521155 54.66885343 22.36459159 54.65915928 24.24389648 54.64257812 C27.11446202 54.6189771 29.98409832 54.62202281 32.85473633 54.62866211 C34.68416893 54.62308506 36.51359763 54.61597501 38.34301758 54.60717773 C39.62601746 54.60854485 39.62601746 54.60854485 40.93493652 54.60993958 C45.21257048 54.55924617 48.81322871 54.48445797 52.62426758 52.30639648 C57.06382384 45.6470621 56.0915595 37.03340216 55.62426758 29.30639648 C54.80298686 25.55024496 53.46994088 23.0992152 50.62426758 20.43139648 C44.52030105 16.99791531 36.85263928 18.00427292 30.02929688 17.95629883 C28.30975775 17.93978193 26.59028607 17.91254819 24.87109375 17.87426758 C11.60093397 17.01136299 11.60093397 17.01136299 0.62426758 23.30639648 Z " fill="#FDFDFD" transform="translate(472.375732421875,596.693603515625)"/>
<path d="M0 0 C3.56134454 3.21854132 6.45239019 7.03338705 9.44140625 10.7734375 C12.38403013 14.43430369 15.4721078 17.96383942 18.5625 21.5 C24.39636912 28.18987543 30.16355191 34.93838358 35.58203125 41.97265625 C37.99047319 45.05052021 37.99047319 45.05052021 41.375 46.875 C41.931875 46.91625 42.48875 46.9575 43.0625 47 C44.26072872 44.60354256 44.21877315 43.04337973 44.26782227 40.36669922 C44.28776749 39.40585419 44.30771271 38.44500916 44.32826233 37.45504761 C44.34497482 36.41542877 44.36168732 35.37580994 44.37890625 34.3046875 C44.4100779 32.71081711 44.4100779 32.71081711 44.44187927 31.08474731 C44.50740261 27.68156562 44.56627273 24.27830511 44.625 20.875 C44.66818257 18.57160634 44.71179677 16.26822074 44.75585938 13.96484375 C44.8639012 8.30997554 44.96295418 2.65504978 45.0625 -3 C51.9925 -3 58.9225 -3 66.0625 -3 C66.15313997 4.94563957 66.22640979 12.89087214 66.26974869 20.83689117 C66.2905571 24.52719955 66.31874919 28.21713358 66.36425781 31.90722656 C66.40795943 35.47342061 66.43168776 39.03925631 66.44200897 42.60569763 C66.45291494 44.61750112 66.48410191 46.62916196 66.51568604 48.64074707 C66.51775395 57.13271774 65.89553441 63.06337007 59.75 69.375 C53.15921617 73.36012511 45.42919397 74.30676006 37.9609375 72.48828125 C31.17170963 69.7157878 27.40645613 63.62117748 23.0625 58 C21.25279262 55.81302029 19.40833181 53.6565132 17.5625 51.5 C12.65471456 45.72648495 7.84568108 39.87720654 3.0625 34 C0.71156522 31.13620206 -1.63974519 28.27271598 -3.9921875 25.41015625 C-5.9375 23 -5.9375 23 -7.4453125 20.68359375 C-7.93773437 20.12800781 -8.43015625 19.57242188 -8.9375 19 C-10.2575 19 -11.5775 19 -12.9375 19 C-13.2675 36.16 -13.5975 53.32 -13.9375 71 C-21.1975 71 -28.4575 71 -35.9375 71 C-36.02814758 63.18478375 -36.10141456 55.36985882 -36.14474869 47.55426025 C-36.16555515 43.92448269 -36.19374354 40.29508585 -36.23925781 36.66552734 C-36.28296659 33.15768737 -36.30668921 29.6502118 -36.31700897 26.14212036 C-36.32791254 24.16355356 -36.35909835 22.18513179 -36.39068604 20.20678711 C-36.39270161 12.06332798 -35.84983869 6.02695799 -29.9375 -0.05859375 C-29.2775 -0.51363281 -28.6175 -0.96867188 -27.9375 -1.4375 C-27.2775 -1.91058594 -26.6175 -2.38367188 -25.9375 -2.87109375 C-17.52585893 -7.61907084 -7.53851577 -5.13260648 0 0 Z " fill="#FCFCFC" transform="translate(933.9375,600)"/>
<path d="M0 0 C10.99626256 -0.06778161 21.99238633 -0.12281954 32.98881054 -0.15543652 C38.09491425 -0.17109116 43.20086759 -0.19232588 48.30688477 -0.22631836 C53.23465261 -0.2589188 58.16227584 -0.27685453 63.0901432 -0.28463173 C64.97001738 -0.29017399 66.84988367 -0.30099666 68.72969627 -0.31719017 C71.36318429 -0.33897353 73.99607503 -0.34196655 76.62963867 -0.34057617 C77.79489326 -0.35675491 77.79489326 -0.35675491 78.98368835 -0.3732605 C83.51687885 -0.3473701 86.38176396 0.22538302 90 3 C95.12994685 8.67958401 94.21526961 15.50871346 94.25 22.75 C94.270625 23.80960938 94.29125 24.86921875 94.3125 25.9609375 C94.34415677 32.33977731 93.9913632 37.303404 91 43 C87.14126479 45.96347979 84.26861714 46.36855505 79.46557617 46.34057617 C78.16460495 46.34034958 76.86363373 46.34012299 75.52323914 46.33988953 C74.11314547 46.32457184 72.70305535 46.30892389 71.29296875 46.29296875 C69.84280334 46.28736939 68.39263223 46.2831009 66.94245911 46.28010559 C63.13652721 46.26868347 59.33094197 46.23923945 55.52514648 46.20599365 C51.63725473 46.17523566 47.74930664 46.16158805 43.86132812 46.14648438 C36.24070952 46.11436672 28.62044762 46.06162087 21 46 C21 55.24 21 64.48 21 74 C14.07 74 7.14 74 0 74 C0 58.82 0 43.64 0 28 C34.155 27.505 34.155 27.505 69 27 C69.99 24.525 69.99 24.525 71 22 C70.505 21.01 70.505 21.01 70 20 C66.64364718 18.88121573 64.04711646 18.84114412 60.5090332 18.79467773 C59.8551059 18.78477814 59.20117859 18.77487854 58.5274353 18.76467896 C56.3685873 18.73312217 54.20971729 18.70832968 52.05078125 18.68359375 C50.55290662 18.66301919 49.05503772 18.64202258 47.55717468 18.62062073 C43.6166143 18.56545191 39.67600197 18.51601979 35.73535156 18.46777344 C31.71349469 18.41752049 27.69171316 18.36185423 23.66992188 18.30664062 C15.78000992 18.19912252 7.89003389 18.0981638 0 18 C0 12.06 0 6.12 0 0 Z " fill="#FDFDFD" transform="translate(0,597)"/>
<path d="M0 0 C2.6875 2.0625 2.6875 2.0625 5 5 C5.7321875 5.8971875 6.464375 6.794375 7.21875 7.71875 C11.4617848 13.68534616 13.98468621 20.72330317 16.8125 27.4375 C17.41524067 28.85124211 18.01874986 30.26465682 18.62304688 31.67773438 C20.09091811 35.11475702 21.54831454 38.55610452 23 42 C27.303631 33.60654896 31.15854347 25.12728581 34.7421875 16.40625 C39.47714077 5.10238269 39.47714077 5.10238269 44.25 1.125 C47.93572472 -0.38279648 51.07103722 -0.60201849 55 0 C58 1.375 58 1.375 60 3 C60 3.66 60 4.32 60 5 C60.66 5 61.32 5 62 5 C65.42634044 11.35078327 65.39306075 16.9394319 65.29296875 24.05859375 C65.28872391 25.20288345 65.28447906 26.34717316 65.28010559 27.52613831 C65.26337804 31.16350311 65.22573565 34.80030402 65.1875 38.4375 C65.17244556 40.91079926 65.15875848 43.38410725 65.14648438 45.85742188 C65.11349373 51.90516358 65.06175133 57.95248634 65 64 C60.05 64 55.1 64 50 64 C49.67 51.13 49.34 38.26 49 25 C46.43416581 27.56583419 45.41298609 30.46340013 44.06640625 33.765625 C43.78780258 34.43664246 43.50919891 35.10765991 43.22215271 35.79901123 C42.33090489 37.94743236 41.44632557 40.09851604 40.5625 42.25 C39.68129725 44.38679003 38.79864325 46.52295683 37.91355896 48.65814209 C37.36344154 49.98609714 36.81566586 51.3150256 36.27064514 52.64508057 C34.66146155 56.53963653 32.89230214 60.21539573 31 64 C26.05 64 21.1 64 16 64 C11.71085984 54.95550879 7.57391081 45.85879011 3.5625 36.6875 C3.11342285 35.66712646 2.6643457 34.64675293 2.20166016 33.59545898 C1.78577637 32.63969971 1.36989258 31.68394043 0.94140625 30.69921875 C0.56701416 29.84158936 0.19262207 28.98395996 -0.19311523 28.1003418 C-1 26 -1 26 -1 24 C-1.66 24 -2.32 24 -3 24 C-3 37.2 -3 50.4 -3 64 C-8.28 64 -13.56 64 -19 64 C-19.04961362 57.31055774 -19.08582079 50.62122376 -19.10986328 43.93164062 C-19.11989133 41.65818413 -19.13351711 39.38474044 -19.15087891 37.11132812 C-19.17526784 33.83460318 -19.18651534 30.55804949 -19.1953125 27.28125 C-19.20563507 26.27259888 -19.21595764 25.26394775 -19.22659302 24.22473145 C-19.22763637 17.59151979 -19.00119946 11.33533243 -15.5 5.5 C-15.005 5.005 -14.51 4.51 -14 4 C-13.34 4 -12.68 4 -12 4 C-12 3.34 -12 2.68 -12 2 C-8.3095792 -0.46028053 -4.28530544 -0.82277864 0 0 Z " fill="#FAFAFA" transform="translate(735,705)"/>
<path d="M0 0 C0.9727739 -0.01235687 1.94554779 -0.02471375 2.94779968 -0.03744507 C5.00281782 -0.05698187 7.05792915 -0.06823821 9.11303711 -0.07177734 C12.24167727 -0.08584737 15.36630474 -0.15318711 18.49414062 -0.22265625 C20.49607609 -0.23505797 22.49803431 -0.24427588 24.5 -0.25 C25.42734451 -0.27671783 26.35468903 -0.30343567 27.31013489 -0.33096313 C33.60835226 -0.26575536 36.81911359 1.30288814 41.3712616 5.64492798 C45.84326058 11.01298734 45.28245603 16.27842 45.26171875 22.9765625 C45.27783203 24.01361328 45.29394531 25.05066406 45.31054688 26.11914062 C45.31678024 35.82449233 45.31678024 35.82449233 41.94921875 39.5390625 C39.11909748 40.48243626 37.40621957 40.66079079 34.4777832 40.65258789 C33.12672234 40.65247459 33.12672234 40.65247459 31.74836731 40.65235901 C30.7795311 40.64719772 29.81069489 40.64203644 28.8125 40.63671875 C27.32063423 40.63459633 27.32063423 40.63459633 25.79862976 40.63243103 C22.61962893 40.62683011 19.44069832 40.61427746 16.26171875 40.6015625 C14.10742289 40.59654762 11.95312593 40.59198469 9.79882812 40.58789062 C4.51560101 40.57686038 -0.7675851 40.56012136 -6.05078125 40.5390625 C-5.39078125 42.5190625 -4.73078125 44.4990625 -4.05078125 46.5390625 C11.78921875 46.8690625 27.62921875 47.1990625 43.94921875 47.5390625 C43.94921875 52.8190625 43.94921875 58.0990625 43.94921875 63.5390625 C36.18963721 63.61316232 28.43026117 63.66764156 20.67041016 63.70385742 C18.03007419 63.7189534 15.38976333 63.73943204 12.74951172 63.76538086 C8.95664272 63.80172741 5.16410498 63.81878095 1.37109375 63.83203125 C0.18868103 63.84751511 -0.99373169 63.86299896 -2.2119751 63.87895203 C-3.31281433 63.87917862 -4.41365356 63.87940521 -5.54785156 63.87963867 C-6.51603821 63.88630051 -7.48422485 63.89296234 -8.48175049 63.89982605 C-11.49156105 63.47716473 -12.88161106 62.63965915 -15.05078125 60.5390625 C-15.05078125 59.8790625 -15.05078125 59.2190625 -15.05078125 58.5390625 C-15.71078125 58.5390625 -16.37078125 58.5390625 -17.05078125 58.5390625 C-17.69912779 57.2695095 -18.3443594 55.99836544 -18.98828125 54.7265625 C-19.34792969 54.01886719 -19.70757813 53.31117188 -20.078125 52.58203125 C-22.86605461 46.72625942 -22.34872448 40.53681543 -22.40087891 34.19018555 C-22.41734132 32.72680653 -22.44450172 31.26350463 -22.48291016 29.80053711 C-22.72031041 20.69365712 -22.30987102 13.37303875 -17.05078125 5.5390625 C-16.39078125 5.5390625 -15.73078125 5.5390625 -15.05078125 5.5390625 C-15.05078125 4.8790625 -15.05078125 4.2190625 -15.05078125 3.5390625 C-10.52491051 -0.30854745 -5.63912307 0.03912107 0 0 Z M-4.05078125 17.5390625 C-6.42058138 20.49283748 -6.42058138 20.49283748 -6.05078125 24.5390625 C5.82921875 24.5390625 17.70921875 24.5390625 29.94921875 24.5390625 C29.94921875 22.8890625 29.94921875 21.2390625 29.94921875 19.5390625 C26.44684995 16.0366937 21.23110461 17.23509996 16.49609375 17.21679688 C15.75037109 17.21897217 15.00464844 17.22114746 14.23632812 17.22338867 C11.95784785 17.22655053 9.68066354 17.20308733 7.40234375 17.17773438 C5.95963706 17.17546162 4.51692687 17.17475777 3.07421875 17.17578125 C1.75679687 17.17280029 0.439375 17.16981934 -0.91796875 17.16674805 C-2.46871094 17.3510437 -2.46871094 17.3510437 -4.05078125 17.5390625 Z " fill="#FDFDFD" transform="translate(616.05078125,705.4609375)"/>
<path d="M0 0 C1.08089401 0.00015106 2.16178802 0.00030212 3.2754364 0.00045776 C5.02398674 0.01594162 5.02398674 0.01594162 6.80786133 0.03173828 C8.00220291 0.03456818 9.19654449 0.03739807 10.42707825 0.04031372 C14.24811755 0.05152401 18.06892392 0.07663042 21.88989258 0.10205078 C24.47777982 0.11207947 27.06567073 0.12120551 29.65356445 0.12939453 C36.00326381 0.15146617 42.35278868 0.18600207 48.70239258 0.22705078 C48.70239258 5.83705078 48.70239258 11.44705078 48.70239258 17.22705078 C34.51239258 17.55705078 20.32239258 17.88705078 5.70239258 18.22705078 C5.70239258 19.54705078 5.70239258 20.86705078 5.70239258 22.22705078 C6.79704834 22.2416333 7.8917041 22.25621582 9.01953125 22.27124023 C13.09196163 22.32933817 17.16384572 22.40657005 21.23583984 22.48950195 C22.99616612 22.52269732 24.75659746 22.55074602 26.51708984 22.57348633 C29.05196783 22.60713198 31.58588781 22.65945138 34.12036133 22.71533203 C35.29564644 22.72491692 35.29564644 22.72491692 36.49467468 22.73469543 C42.22879299 22.88799575 45.45674846 23.98783154 49.49438477 28.01391602 C51.12590441 31.00294705 51.05852223 33.24212628 51.03051758 36.63720703 C51.02536133 37.8740625 51.02020508 39.11091797 51.01489258 40.38525391 C50.99426758 41.67367187 50.97364258 42.96208984 50.95239258 44.28955078 C50.94723633 45.58183594 50.94208008 46.87412109 50.93676758 48.20556641 C50.85699564 57.76324159 50.85699564 57.76324159 49.70239258 61.22705078 C46.23562014 63.53823241 44.93907377 63.47122974 40.85400391 63.45410156 C39.05247612 63.45387497 39.05247612 63.45387497 37.21455383 63.4536438 C35.91761093 63.44332123 34.62066803 63.43299866 33.28442383 63.42236328 C31.94349885 63.41863233 30.60257114 63.41578575 29.26164246 63.41378784 C25.73524425 63.40615778 22.20901124 63.38651481 18.68267822 63.36437988 C15.08315261 63.34390788 11.48360027 63.33478324 7.8840332 63.32470703 C0.82341236 63.30326821 -6.23706936 63.26809124 -13.29760742 63.22705078 C-13.29760742 57.94705078 -13.29760742 52.66705078 -13.29760742 47.22705078 C2.21239258 46.89705078 17.72239258 46.56705078 33.70239258 46.22705078 C34.03239258 44.24705078 34.36239258 42.26705078 34.70239258 40.22705078 C33.58268066 40.24276123 32.46296875 40.25847168 31.30932617 40.2746582 C27.13850147 40.32912973 22.96770796 40.36346331 18.79663086 40.3918457 C16.99449366 40.40689318 15.19239284 40.42733608 13.39038086 40.45336914 C10.79377237 40.48993099 8.19764983 40.50681759 5.60083008 40.52001953 C4.40047623 40.54324532 4.40047623 40.54324532 3.1758728 40.56694031 C-1.68255301 40.5683882 -5.18364663 40.10041116 -9.29760742 37.22705078 C-12.39838469 31.90856188 -11.62716338 25.69663625 -11.61010742 19.72705078 C-11.6262207 18.59912109 -11.64233398 17.47119141 -11.65893555 16.30908203 C-11.65958008 15.21982422 -11.66022461 14.13056641 -11.66088867 13.00830078 C-11.66386963 12.01894531 -11.66685059 11.02958984 -11.66992188 10.01025391 C-11.23080229 6.72765508 -10.25097682 4.88310608 -8.29760742 2.22705078 C-4.95143851 -0.0037285 -3.90166783 -0.01818959 0 0 Z " fill="#FCFCFC" transform="translate(352.297607421875,705.77294921875)"/>
<path d="M0 0 C1.08089401 0.00015106 2.16178802 0.00030212 3.2754364 0.00045776 C5.02398674 0.01594162 5.02398674 0.01594162 6.80786133 0.03173828 C8.00220291 0.03456818 9.19654449 0.03739807 10.42707825 0.04031372 C14.24811755 0.05152401 18.06892392 0.07663042 21.88989258 0.10205078 C24.47777982 0.11207947 27.06567073 0.12120551 29.65356445 0.12939453 C36.00326381 0.15146617 42.35278868 0.18600207 48.70239258 0.22705078 C48.70239258 5.83705078 48.70239258 11.44705078 48.70239258 17.22705078 C34.18239258 17.22705078 19.66239258 17.22705078 4.70239258 17.22705078 C5.03239258 18.87705078 5.36239258 20.52705078 5.70239258 22.22705078 C6.79704834 22.2416333 7.8917041 22.25621582 9.01953125 22.27124023 C13.09196163 22.32933817 17.16384572 22.40657005 21.23583984 22.48950195 C22.99616612 22.52269732 24.75659746 22.55074602 26.51708984 22.57348633 C29.05196783 22.60713198 31.58588781 22.65945138 34.12036133 22.71533203 C35.29564644 22.72491692 35.29564644 22.72491692 36.49467468 22.73469543 C42.22484404 22.88789018 45.46276054 23.98006866 49.48779297 28.01831055 C52.11735312 32.80014587 51.16936774 38.8456234 51.13989258 44.16455078 C51.15987305 45.44007813 51.17985352 46.71560547 51.20043945 48.02978516 C51.19947266 49.8734668 51.19947266 49.8734668 51.19848633 51.75439453 C51.20033936 52.87579834 51.20219238 53.99720215 51.20410156 55.15258789 C50.5781124 58.98863728 49.43678117 60.49025637 46.70239258 63.22705078 C43.94354248 63.82832336 43.94354248 63.82832336 40.74047852 63.79467773 C39.53953552 63.79430008 38.33859253 63.79392242 37.10125732 63.79353333 C35.80947571 63.7677269 34.51769409 63.74192047 33.18676758 63.71533203 C31.84728313 63.7060017 30.50778157 63.69888662 29.16827393 63.69389343 C25.64970447 63.67484 22.13217383 63.62575642 18.61401367 63.57037354 C15.02122042 63.51914357 11.42825862 63.49637158 7.83520508 63.47119141 C0.79046969 63.41763363 -6.2533916 63.32971312 -13.29760742 63.22705078 C-13.29760742 57.94705078 -13.29760742 52.66705078 -13.29760742 47.22705078 C2.21239258 46.89705078 17.72239258 46.56705078 33.70239258 46.22705078 C34.03239258 44.24705078 34.36239258 42.26705078 34.70239258 40.22705078 C33.58268066 40.24276123 32.46296875 40.25847168 31.30932617 40.2746582 C27.13850147 40.32912973 22.96770796 40.36346331 18.79663086 40.3918457 C16.99449366 40.40689318 15.19239284 40.42733608 13.39038086 40.45336914 C10.79377237 40.48993099 8.19764983 40.50681759 5.60083008 40.52001953 C4.40047623 40.54324532 4.40047623 40.54324532 3.1758728 40.56694031 C-1.6986376 40.568393 -5.12957546 40.03676858 -9.29760742 37.22705078 C-12.79070696 32.54296465 -11.62523044 25.84574855 -11.61010742 20.28955078 C-11.6262207 19.10941406 -11.64233398 17.92927734 -11.65893555 16.71337891 C-11.65958008 15.57449219 -11.66022461 14.43560547 -11.66088867 13.26220703 C-11.66386963 12.22459229 -11.66685059 11.18697754 -11.66992188 10.11791992 C-11.23864314 6.76921731 -10.29761489 4.92745681 -8.29760742 2.22705078 C-4.95143851 -0.0037285 -3.90166783 -0.01818959 0 0 Z " fill="#FDFDFD" transform="translate(115.297607421875,705.77294921875)"/>
<path d="M0 0 C1.59142319 0.0001133 1.59142319 0.0001133 3.21499634 0.00022888 C4.93847794 0.00797081 4.93847794 0.00797081 6.69677734 0.01586914 C7.87033783 0.01728409 9.04389832 0.01869904 10.25302124 0.02015686 C14.0129447 0.0257685 17.77280929 0.03832301 21.53271484 0.05102539 C24.07698482 0.05603889 26.62125572 0.06060206 29.16552734 0.06469727 C35.41294597 0.07574172 41.66032042 0.0930142 47.90771484 0.11352539 C47.90771484 5.72352539 47.90771484 11.33352539 47.90771484 17.11352539 C33.71771484 17.11352539 19.52771484 17.11352539 4.90771484 17.11352539 C5.23771484 18.76352539 5.56771484 20.41352539 5.90771484 22.11352539 C7.00237061 22.12810791 8.09702637 22.14269043 9.22485352 22.15771484 C13.29728389 22.21581278 17.36916799 22.29304466 21.44116211 22.37597656 C23.20148839 22.40917193 24.96191973 22.43722063 26.72241211 22.45996094 C29.2572901 22.49360659 31.79121007 22.54592599 34.32568359 22.60180664 C35.5009687 22.61139153 35.5009687 22.61139153 36.69999695 22.62117004 C41.26040795 22.74309157 44.35431343 23.17232047 47.90771484 26.11352539 C52.14595431 31.60822638 51.38547039 37.40154139 51.34521484 44.05102539 C51.36519531 45.21827148 51.38517578 46.38551758 51.40576172 47.58813477 C51.40479492 49.28486328 51.40479492 49.28486328 51.40380859 51.01586914 C51.40566162 52.04188232 51.40751465 53.06789551 51.40942383 54.125 C50.69906497 58.35638824 50.0792544 60.12030754 46.90771484 63.11352539 C42.4055066 63.9729739 37.96026725 63.80897521 33.39208984 63.69946289 C32.0526113 63.68826654 30.71310812 63.67972842 29.37359619 63.67373657 C25.85481443 63.65087108 22.33752833 63.59197276 18.81933594 63.5255127 C15.22660557 63.46403781 11.63363251 63.43671078 8.04052734 63.40649414 C0.99558761 63.34222294 -6.04809356 63.23671977 -13.09228516 63.11352539 C-13.09228516 57.83352539 -13.09228516 52.55352539 -13.09228516 47.11352539 C2.41771484 46.78352539 17.92771484 46.45352539 33.90771484 46.11352539 C33.90771484 44.46352539 33.90771484 42.81352539 33.90771484 41.11352539 C32.81305908 41.09894287 31.71840332 41.08436035 30.59057617 41.06933594 C26.51814579 41.011238 22.4462617 40.93400612 18.37426758 40.85107422 C16.6139413 40.81787885 14.85350996 40.78983015 13.09301758 40.76708984 C10.55813959 40.73344419 8.02421961 40.68112479 5.48974609 40.62524414 C4.70622269 40.61885422 3.92269928 40.61246429 3.11543274 40.60588074 C-2.61644205 40.4526404 -5.86438619 39.36579629 -9.87768555 35.30859375 C-12.45372231 30.65308692 -11.55963921 24.86248838 -11.52978516 19.67602539 C-11.54976562 18.44819336 -11.56974609 17.22036133 -11.59033203 15.95532227 C-11.58936523 14.17931641 -11.58936523 14.17931641 -11.58837891 12.36743164 C-11.59023193 11.28792236 -11.59208496 10.20841309 -11.59399414 9.09619141 C-10.97698043 5.42803741 -9.64877111 3.76479536 -7.09228516 1.11352539 C-4.56484427 -0.15019505 -2.82848207 -0.00670256 0 0 Z " fill="#FDFDFD" transform="translate(869.09228515625,705.886474609375)"/>
<path d="M0 0 C7.26 0 14.52 0 22 0 C22 24.42 22 48.84 22 74 C14.74 74 7.48 74 0 74 C0 64.76 0 55.52 0 46 C-12.87 46 -25.74 46 -39 46 C-39 39.73 -39 33.46 -39 27 C-26.13 27 -13.26 27 0 27 C0 18.09 0 9.18 0 0 Z " fill="#FDFDFD" transform="translate(175,597)"/>
<path d="M0 0 C19.8 0 39.6 0 60 0 C60 5.94 60 11.88 60 18 C47.46 18 34.92 18 22 18 C22 36.48 22 54.96 22 74 C14.74 74 7.48 74 0 74 C0 49.58 0 25.16 0 0 Z " fill="#FDFDFD" transform="translate(620,597)"/>
<path d="M0 0 C19.47 0 38.94 0 59 0 C59 24.42 59 48.84 59 74 C52.07 74 45.14 74 38 74 C38 55.52 38 37.04 38 18 C25.46 18 12.92 18 0 18 C0 12.06 0 6.12 0 0 Z " fill="#FDFDFD" transform="translate(556,597)"/>
<path d="M0 0 C4.95 0 9.9 0 15 0 C15.03738281 1.24136719 15.07476562 2.48273437 15.11328125 3.76171875 C15.1789595 5.40367511 15.2454062 7.04560087 15.3125 8.6875 C15.33505859 9.50412109 15.35761719 10.32074219 15.38085938 11.16210938 C15.53466598 14.61576685 15.91977276 17.70482431 16.828125 21.046875 C20.66592182 24.49813113 25.49054218 23.6744495 30.4375 23.5625 C31.48744141 23.57345703 32.53738281 23.58441406 33.61914062 23.59570312 C39.34475187 23.73479636 39.34475187 23.73479636 44.29418945 21.2487793 C46.20297816 18.73241279 46.52523222 17.56640773 46.609375 14.453125 C46.64160156 13.60878906 46.67382812 12.76445313 46.70703125 11.89453125 C46.72121094 11.02183594 46.73539062 10.14914062 46.75 9.25 C46.79447266 7.91775391 46.79447266 7.91775391 46.83984375 6.55859375 C46.91035061 4.37288103 46.95746234 2.18643589 47 0 C51.95 0 56.9 0 62 0 C62.09230898 4.00262009 62.17179076 8.00249678 62.21972656 12.00561523 C62.23972628 13.36446713 62.26693576 14.72323424 62.30175781 16.08178711 C62.65657558 30.29015138 62.65657558 30.29015138 58 36 C55.0339213 39.09735548 52.87281318 40.25544916 48.67211914 40.51757812 C46.95999395 40.54386828 45.24740981 40.54711142 43.53515625 40.53125 C42.62422714 40.5350769 41.71329803 40.53890381 40.77476501 40.54284668 C38.85251762 40.54556278 36.93023308 40.53822274 35.00805664 40.52148438 C32.07549024 40.50009475 29.14538049 40.52128308 26.21289062 40.546875 C24.34114045 40.54423119 22.46939181 40.5391051 20.59765625 40.53125 C19.28958763 40.54339539 19.28958763 40.54339539 17.95509338 40.55578613 C12.41532828 40.47104682 9.1807039 39.75246987 5 36 C5 35.01 5 34.02 5 33 C4.34 33 3.68 33 3 33 C-0.30480483 25.92199281 -0.36021102 19.73213959 -0.1875 12 C-0.17396484 10.84371094 -0.16042969 9.68742188 -0.14648438 8.49609375 C-0.11137403 5.66385922 -0.05757561 2.83186692 0 0 Z " fill="#FDFDFD" transform="translate(222,706)"/>
<path d="M0 0 C7.26 0 14.52 0 22 0 C22 24.42 22 48.84 22 74 C14.74 74 7.48 74 0 74 C0 49.58 0 25.16 0 0 Z " fill="#FDFDFD" transform="translate(102,597)"/>
<path d="M0 0 C13.2 0 26.4 0 40 0 C40 5.61 40 11.22 40 17 C32.08 17 24.16 17 16 17 C16 32.18 16 47.36 16 63 C10.72 63 5.44 63 0 63 C0 42.21 0 21.42 0 0 Z " fill="#FBFBFB" transform="translate(500,706)"/>
<path d="M0 0 C7.26 0 14.52 0 22 0 C23.6140925 1.6140925 23.12734318 3.36476408 23.12939453 5.59570312 C23.13254669 6.57341675 23.13569885 7.55113037 23.13894653 8.55847168 C23.1369223 9.62198853 23.13489807 10.68550537 23.1328125 11.78125 C23.13424759 13.40697937 23.13424759 13.40697937 23.13571167 15.06555176 C23.13639365 17.3622239 23.13453811 19.65889795 23.13037109 21.95556641 C23.12502312 25.48474428 23.1303155 29.01379487 23.13671875 32.54296875 C23.13605797 34.76822945 23.13477682 36.99349007 23.1328125 39.21875 C23.13483673 40.28226685 23.13686096 41.34578369 23.13894653 42.44152832 C23.13579437 43.41924194 23.13264221 44.39695557 23.12939453 45.40429688 C23.12859894 46.26953979 23.12780334 47.13478271 23.12698364 48.02624512 C23 50 23 50 22 51 C19.66702567 51.04092937 17.33294775 51.04241723 15 51 C15.00523682 51.93384521 15.01047363 52.86769043 15.01586914 53.82983398 C15.0328762 57.28312796 15.04543302 60.73637767 15.05493164 64.18969727 C15.05997121 65.68644918 15.06680287 67.18319616 15.07543945 68.67993164 C15.08752159 70.82699807 15.09323191 72.97399962 15.09765625 75.12109375 C15.10289307 76.4145874 15.10812988 77.70808105 15.11352539 79.04077148 C15 82 15 82 14 83 C12.02 83 10.04 83 8 83 C8 72.44 8 61.88 8 51 C5.36 51 2.72 51 0 51 C0 34.17 0 17.34 0 0 Z " fill="#FDFDFD" transform="translate(486,492)"/>
<path d="M0 0 C13.2 0 26.4 0 40 0 C40 20.79 40 41.58 40 63 C35.05 63 30.1 63 25 63 C25 47.82 25 32.64 25 17 C16.75 17 8.5 17 0 17 C0 11.39 0 5.78 0 0 Z " fill="#FEFEFE" transform="translate(458,706)"/>
<path d="M0 0 C7.26 0 14.52 0 22 0 C22 16.83 22 33.66 22 51 C19.36 51 16.72 51 14 51 C14 61.56 14 72.12 14 83 C12.02 83 10.04 83 8 83 C7 82 7 82 6.88647461 79.04077148 C6.89171143 77.74727783 6.89694824 76.45378418 6.90234375 75.12109375 C6.9037587 74.4344313 6.90517365 73.74776886 6.90663147 73.04029846 C6.91224521 70.83932199 6.92479993 68.63844591 6.9375 66.4375 C6.94251324 64.94856917 6.94707645 63.45963676 6.95117188 61.97070312 C6.96221907 58.31376925 6.97949287 54.65689442 7 51 C4.69 51 2.38 51 0 51 C0 34.17 0 17.34 0 0 Z " fill="#FDFDFD" transform="translate(514,492)"/>
<path d="M0 0 C7.26 0 14.52 0 22 0 C22 16.83 22 33.66 22 51 C19.36 51 16.72 51 14 51 C14 61.56 14 72.12 14 83 C12.02 83 10.04 83 8 83 C8 72.44 8 61.88 8 51 C5.36 51 2.72 51 0 51 C0 34.17 0 17.34 0 0 Z " fill="#FDFDFD" transform="translate(459,492)"/>
<path d="M0 0 C1.32 1.32 2.64 2.64 4 4 C4.61875 3.690625 5.2375 3.38125 5.875 3.0625 C7.25 2.375 8.625 1.6875 10 1 C10 23.77 10 46.54 10 70 C6.7 70 3.4 70 0 70 C0 46.9 0 23.8 0 0 Z " fill="#FCFCFC" transform="translate(492,388)"/>
<path d="M0 0 C5.28 0 10.56 0 16 0 C16.12375 2.59875 16.2475 5.1975 16.375 7.875 C16.68331145 13.68586827 17.20083753 19.25303405 18.59765625 24.921875 C19 27 19 27 19 32 C11.74 32 4.48 32 -3 32 C-2 22 -2 22 -1.47265625 19.42578125 C-0.74813404 15.7073656 -0.63069087 11.96580663 -0.4375 8.1875 C-0.39431641 7.39923828 -0.35113281 6.61097656 -0.30664062 5.79882812 C-0.20121679 3.86605785 -0.10016906 1.93304974 0 0 Z " fill="#FCFCFC" transform="translate(462,459)"/>
<path d="M0 0 C4.95 0 9.9 0 15 0 C15.92142235 3.68568941 16.23234977 6.8485611 16.4375 10.625 C16.77536209 15.85641308 17.40494931 20.8124109 18.59765625 25.9140625 C19 28 19 28 19 32 C11.74 32 4.48 32 -3 32 C-2.11955168 21.56039851 -2.11955168 21.56039851 -1.5 18.65625 C-0.8143221 15.01358616 -0.63902539 11.38433464 -0.4375 7.6875 C-0.39431641 6.94693359 -0.35113281 6.20636719 -0.30664062 5.44335938 C-0.20129568 3.62908536 -0.10021684 1.8145645 0 0 Z " fill="#FDFDFD" transform="translate(517,459)"/>
<path d="M0 0 C4.95 0 9.9 0 15 0 C15.12117188 1.30453125 15.24234375 2.6090625 15.3671875 3.953125 C16.2638832 13.38196148 17.28329566 22.68074786 19 32 C11.41 32 3.82 32 -4 32 C-3.71125 30.246875 -3.4225 28.49375 -3.125 26.6875 C-1.75294058 17.82791632 -0.88532566 8.91918513 0 0 Z " fill="#FDFDFD" transform="translate(490,459)"/>
<path d="M0 0 C0.93423645 3.01031744 1.04449911 3.86650268 0 7 C2.31 7 4.62 7 7 7 C6.319375 7.66 5.63875 8.32 4.9375 9 C3.95350067 9.99524504 2.97497923 10.99591691 2 12 C1.39929688 12.61617188 0.79859375 13.23234375 0.1796875 13.8671875 C-0.43648437 14.52976562 -1.05265625 15.19234375 -1.6875 15.875 C-2.55955078 16.79925781 -2.55955078 16.79925781 -3.44921875 17.7421875 C-7.09281737 23.0469734 -7.35150942 29.20989156 -7.625 35.4375 C-7.68300781 36.53481445 -7.68300781 36.53481445 -7.7421875 37.65429688 C-7.83533984 39.43583532 -7.91870286 41.21788122 -8 43 C-11.3 43 -14.6 43 -18 43 C-18.74265973 17.99712228 -18.74265973 17.99712228 -11.25 9.125 C-7.79115824 5.55726877 -4.16841218 2.69209953 0 0 Z " fill="#FBFBFB" transform="translate(538,415)"/>
<path d="M0 0 C7.10127845 3.00438704 11.69966916 8.18761897 15 15 C18.18689844 23.10760173 17.1766571 32.45175921 17 41 C13.7 41 10.4 41 7 41 C6.90203125 39.63746094 6.8040625 38.27492188 6.703125 36.87109375 C6.55296778 35.05982229 6.40187657 33.2486281 6.25 31.4375 C6.188125 30.54224609 6.12625 29.64699219 6.0625 28.72460938 C5.42254236 21.44509119 3.93080419 16.72653602 -1.578125 11.6015625 C-2.45984375 10.94929688 -3.3415625 10.29703125 -4.25 9.625 C-5.84449445 8.43143335 -7.43137129 7.22736216 -9 6 C-9 5.67 -9 5.34 -9 5 C-6.03 5 -3.06 5 0 5 C0 3.35 0 1.7 0 0 Z " fill="#FBFBFB" transform="translate(458,417)"/>
<path d="M0 0 C8.25 0 16.5 0 25 0 C25 5.28 25 10.56 25 16 C16.75 16 8.5 16 0 16 C0 10.72 0 5.44 0 0 Z " fill="#FDFDFD" transform="translate(241,753)"/>
<path d="M0 0 C-0.33 2.31 -0.66 4.62 -1 7 C-1.99 7 -2.98 7 -4 7 C-3.67 5.35 -3.34 3.7 -3 2 C-62.25735554 2.68758535 -125.40579356 13.34823338 -176.83203125 44.296875 C-177.87746094 44.85890625 -178.92289063 45.4209375 -180 46 C-180.66 45.67 -181.32 45.34 -182 45 C-177.12214172 40.54665156 -171.97328213 37.65648759 -166.0625 34.75 C-165.09594482 34.27328857 -164.12938965 33.79657715 -163.13354492 33.30541992 C-125.51167384 15.07307213 -85.2707629 6.70777688 -44 2 C-42.73953857 1.84857544 -42.73953857 1.84857544 -41.45361328 1.6940918 C-36.10099246 1.06303493 -30.75789322 0.69541706 -25.375 0.4375 C-24.08480957 0.37381226 -24.08480957 0.37381226 -22.76855469 0.30883789 C-15.17383616 -0.0407893 -7.60160596 -0.10365826 0 0 Z " fill="#249BC6" transform="translate(846,176)"/>
<path d="M0 0 C10.32437416 -0.33720075 19.72260551 0.46658906 29.875 2.5625 C30.53687317 2.69527344 31.19874634 2.82804688 31.88067627 2.96484375 C51.03247744 6.80858845 69.71195785 12.13255088 88 19 C83.88678348 20.71295906 80.32798048 19.15764726 76.3125 17.875 C75.55485352 17.64417725 74.79720703 17.41335449 74.01660156 17.17553711 C71.00846922 16.25832477 68.00697263 15.32164778 65.01123047 14.36474609 C43.90308511 7.63042434 21.95549475 3.73543869 0 1 C0 0.67 0 0.34 0 0 Z " fill="#F19861" transform="translate(204,181)"/>
<path d="M0 0 C-4.66353129 3.06074414 -9.6840146 5.05539163 -14.8125 7.1875 C-26.69076607 12.2016692 -38.34814891 17.60805137 -49.3984375 24.28515625 C-49.92695312 24.52105469 -50.45546875 24.75695312 -51 25 C-51.66 24.67 -52.32 24.34 -53 24 C-48.12176288 19.54630569 -42.97293674 16.6580439 -37.0625 13.75 C-36.11407227 13.27981445 -35.16564453 12.80962891 -34.18847656 12.32519531 C-26.99552418 8.82649427 -19.68828401 5.68837803 -12.25 2.75 C-11.25621338 2.35522461 -10.26242676 1.96044922 -9.23852539 1.55371094 C-8.31934326 1.20083008 -7.40016113 0.84794922 -6.453125 0.484375 C-5.64004883 0.17209961 -4.82697266 -0.14017578 -3.98925781 -0.46191406 C-2 -1 -2 -1 0 0 Z " fill="#3893BB" transform="translate(717,197)"/>
<path d="M0 0 C4.28141957 1.51858131 6.2366744 4.70908475 8.6875 8.3125 C9.33344116 9.24050415 9.33344116 9.24050415 9.99243164 10.18725586 C10.8887086 11.47703625 11.78116409 12.76947998 12.66992188 14.06445312 C13.95218558 15.93041984 15.24702776 17.78687707 16.546875 19.640625 C26 33.16103412 26 33.16103412 26 36 C22.30643679 34.76881226 21.78801975 33.60627377 19.671875 30.40625 C19.03636719 29.4575 18.40085937 28.50875 17.74609375 27.53125 C17.08738281 26.5309375 16.42867187 25.530625 15.75 24.5 C8.91791137 13.83943742 8.91791137 13.83943742 1 4 C0.34 4 -0.32 4 -1 4 C-0.67 2.68 -0.34 1.36 0 0 Z " fill="#BACB83" transform="translate(497,1)"/>
<path d="M0 0 C0.66 0.33 1.32 0.66 2 1 C0.09702803 4.83598687 -1.82380386 8.66230638 -3.76171875 12.48071289 C-4.41840181 13.78093887 -5.07013723 15.08367598 -5.71679688 16.38891602 C-6.64724886 18.26480425 -7.5951256 20.13093952 -8.546875 21.99609375 C-9.11245117 23.12200928 -9.67802734 24.2479248 -10.26074219 25.40795898 C-12 28 -12 28 -14.21582031 28.87524414 C-14.80459961 28.91641357 -15.39337891 28.95758301 -16 29 C-14.06460038 22.7721442 -11.13005827 17.38287726 -8 11.6875 C-7.4534375 10.67365234 -6.906875 9.65980469 -6.34375 8.61523438 C-5.8178125 7.65294922 -5.291875 6.69066406 -4.75 5.69921875 C-4.27046875 4.82096436 -3.7909375 3.94270996 -3.296875 3.0378418 C-2 1 -2 1 0 0 Z " fill="#C2D288" transform="translate(460,54)"/>
<path d="M0 0 C9.27048351 1.28617739 17.87981336 4.09600737 26.6875 7.125 C28.08244286 7.5983624 29.47762392 8.07102348 30.87304688 8.54296875 C34.2514767 9.68725703 37.62660385 10.84094387 41 12 C36.67970729 13.33761428 33.4986971 12.21469701 29.3125 10.875 C27.7957761 10.40559297 26.27884236 9.93686354 24.76171875 9.46875 C23.98103027 9.22511719 23.2003418 8.98148438 22.39599609 8.73046875 C20.00854291 8.00260448 17.61248612 7.32199718 15.20703125 6.65625 C14.4389917 6.4411377 13.67095215 6.22602539 12.87963867 6.00439453 C11.40379526 5.59240489 9.926131 5.18687007 8.4465332 4.78857422 C4.78418227 3.74771869 2.54188145 2.81391582 0 0 Z " fill="#EB8C60" transform="translate(251,188)"/>
<path d="M0 0 C1.31303101 -0.00604248 1.31303101 -0.00604248 2.65258789 -0.01220703 C4.05238892 0.00156982 4.05238892 0.00156982 5.48046875 0.015625 C6.42720459 0.02094238 7.37394043 0.02625977 8.34936523 0.03173828 C26.54485362 0.27668053 26.54485362 0.27668053 33.66796875 4.265625 C30.75130208 4.11979167 27.83463542 3.97395833 24.91796875 3.828125 C23.58620605 3.76153687 23.58620605 3.76153687 22.22753906 3.69360352 C17.44726562 3.45458984 12.66699219 3.21557617 7.88671875 2.9765625 C6.5114502 2.90779907 6.5114502 2.90779907 5.10839844 2.83764648 C2.4375 2.70410156 2.4375 2.70410156 -0.23339844 2.57055664 C-1.43464355 2.51049438 -1.43464355 2.51049438 -2.66015625 2.44921875 C-4.47773438 2.35833984 -4.47773438 2.35833984 -6.33203125 2.265625 C-3.91104928 -0.15535697 -3.3115009 0.00949729 0 0 Z " fill="#F09162" transform="translate(168.33203125,176.734375)"/>
<path d="M0 0 C-0.33 2.31 -0.66 4.62 -1 7 C-1.99 7 -2.98 7 -4 7 C-3.67 5.35 -3.34 3.7 -3 2 C-18.345 2.495 -18.345 2.495 -34 3 C-34.33 2.34 -34.66 1.68 -35 1 C-23.31923512 0.33591591 -11.70134149 -0.15956375 0 0 Z " fill="#2595C1" transform="translate(846,176)"/>
<path d="M0 0 C0.66 0.33 1.32 0.66 2 1 C1.33613281 1.85722656 0.67226563 2.71445313 -0.01171875 3.59765625 C-4.4421382 9.33040126 -8.85337424 15.05650307 -13 21 C-13.66 20.67 -14.32 20.34 -15 20 C-13.58474387 16.00099421 -11.67943 12.86330817 -9.1875 9.4375 C-8.52105469 8.50808594 -7.85460937 7.57867187 -7.16796875 6.62109375 C-4.99070194 3.98875856 -2.73679475 2.02990885 0 0 Z " fill="#BBCB83" transform="translate(493,6)"/>
<path d="M0 0 C0.66 0.33 1.32 0.66 2 1 C-2.61885052 4.01270703 -7.5581531 6.06479823 -12.625 8.1875 C-13.48351562 8.55552734 -14.34203125 8.92355469 -15.2265625 9.30273438 C-16.0515625 9.65013672 -16.8765625 9.99753906 -17.7265625 10.35546875 C-18.47502441 10.67153076 -19.22348633 10.98759277 -19.99462891 11.31323242 C-22 12 -22 12 -25 12 C-25 11.34 -25 10.68 -25 10 C-18.33333333 7.33333333 -11.66666667 4.66666667 -5 2 C-4.11594482 1.60925293 -3.23188965 1.21850586 -2.32104492 0.81591797 C-1.5551001 0.54666504 -0.78915527 0.27741211 0 0 Z " fill="#2E8FB6" transform="translate(715,196)"/>
<path d="M0 0 C8.40193774 2.50584108 16.11941439 6.21025857 24 10 C23.67 10.99 23.34 11.98 23 13 C15.41 9.37 7.82 5.74 0 2 C0 1.34 0 0.68 0 0 Z " fill="#E56D48" transform="translate(293,201)"/>
<path d="M0 0 C0.82973374 2.38213881 1.10314333 3.65893095 0.36328125 6.10546875 C0.01652344 6.79253906 -0.33023437 7.47960937 -0.6875 8.1875 C-1.18830078 9.22970703 -1.18830078 9.22970703 -1.69921875 10.29296875 C-3.30835927 12.40466367 -4.42201159 12.63636795 -7 13 C-5.69045524 8.76916309 -4.16145284 4.872603 -2 1 C-1.34 0.67 -0.68 0.34 0 0 Z " fill="#B8C886" transform="translate(451,70)"/>
<path d="M0 0 C4.07884045 1.35961348 4.93816372 3.30291425 7 7 C7.25 9.875 7.25 9.875 7 12 C4.07811678 9.3703051 2.02701452 6.35505851 0 3 C0 2.01 0 1.02 0 0 Z " fill="#C0D289" transform="translate(524,40)"/>
<path d="M0 0 C0.66 0.33 1.32 0.66 2 1 C1.07544441 2.508013 0.1349253 4.00624917 -0.8125 5.5 C-1.33457031 6.3353125 -1.85664063 7.170625 -2.39453125 8.03125 C-2.92433594 8.6809375 -3.45414062 9.330625 -4 10 C-4.99 10 -5.98 10 -7 10 C-5.6062718 5.56541027 -3.39417765 3.12621626 0 0 Z " fill="#BCCD84" transform="translate(476,29)"/>
<path d="M0 0 C4.83628305 0.99043705 9.47618873 1.95698846 14 4 C10.62700256 5.15006091 8.65146785 4.85199953 5.3125 3.6875 C4.52488281 3.42324219 3.73726563 3.15898437 2.92578125 2.88671875 C1 2 1 2 0 0 Z " fill="#E97C56" transform="translate(278,196)"/>
<path d="M0 0 C0.66 0.33 1.32 0.66 2 1 C-0.97 5.95 -0.97 5.95 -4 11 C-5 8 -5 8 -3.6875 4.375 C-2 1 -2 1 0 0 Z " fill="#C4D489" transform="translate(468,41)"/>
<path d="M0 0 C-0.33 2.31 -0.66 4.62 -1 7 C-1.99 7 -2.98 7 -4 7 C-3.67 5.35 -3.34 3.7 -3 2 C-3.66 1.67 -4.32 1.34 -5 1 C-2 0 -2 0 0 0 Z " fill="#2F9AC4" transform="translate(846,176)"/>
<path d="M0 0 C0.99 0.33 1.98 0.66 3 1 C2.01 1.495 2.01 1.495 1 2 C0.896875 2.639375 0.79375 3.27875 0.6875 3.9375 C0.460625 4.618125 0.23375 5.29875 0 6 C-2.5625 7.25 -2.5625 7.25 -5 8 C-3.62845496 5.04590299 -2.01136276 2.55991624 0 0 Z " fill="#A0B170" transform="translate(496,0)"/>
<path d="M0 0 C1.125 3.75 1.125 3.75 0 6 C-2.0625 6.625 -2.0625 6.625 -4 7 C-3.39816251 4.97954558 -2.72693904 2.97888961 -2 1 C-1.34 0.67 -0.68 0.34 0 0 Z " fill="#B1C47E" transform="translate(451,70)"/>
</svg>
